<svg width="28" height="28" viewBox="0 0 28 28" fill="none" xmlns="http://www.w3.org/2000/svg">
<path d="M26.1941 21.3734C25.2016 20.3734 22.7978 18.9141 21.6315 18.326C20.1127 17.5611 19.9877 17.4986 18.7939 18.3854C17.9976 18.9772 17.4682 19.506 16.5364 19.3072C15.6045 19.1085 13.5794 17.9879 11.8062 16.2205C10.0331 14.4531 8.84741 12.3694 8.64803 11.4407C8.44865 10.512 8.98617 9.98888 9.57243 9.19079C10.3987 8.06584 10.3362 7.87835 9.62993 6.35966C9.07929 5.17846 7.57738 2.79732 6.57361 1.80986C5.49983 0.74928 5.49983 0.936772 4.80794 1.22426C4.24466 1.46124 3.70426 1.74931 3.19353 2.08485C2.1935 2.74919 1.63849 3.30104 1.25035 4.13038C0.86222 4.95972 0.68784 6.90402 2.69226 10.5451C4.69669 14.1862 6.10297 16.048 9.01367 18.9504C11.9244 21.8527 14.1625 23.4133 17.4345 25.2482C21.4821 27.515 23.0346 27.0731 23.8665 26.6857C24.6984 26.2982 25.2528 25.7482 25.9185 24.7482C26.2549 24.2384 26.5436 23.6986 26.781 23.1358C27.0691 22.4465 27.2566 22.4465 26.1941 21.3734Z" stroke="#40DDB6" stroke-width="2" stroke-miterlimit="10"/>
</svg>
