<svg width="200" height="38" viewBox="0 0 200 38" fill="none" xmlns="http://www.w3.org/2000/svg">
<path d="M71.5056 10.325L67.2806 28H61.9806L59.1556 16.175L56.3056 28H51.0056L46.7806 10.325H51.4306L53.7056 23.125L56.8056 10.325H61.4806L64.5806 23.125L66.8806 10.325H71.5056ZM82.6001 13.9C84.2001 13.9 85.4668 14.4333 86.4001 15.5C87.3501 16.5667 87.8251 18.0333 87.8251 19.9V28H83.5501V20.4C83.5501 19.4667 83.3001 18.7417 82.8001 18.225C82.3168 17.6917 81.6668 17.425 80.8501 17.425C79.9835 17.425 79.2918 17.7 78.7751 18.25C78.2751 18.8 78.0251 19.5833 78.0251 20.6V28H73.7501V9.5H78.0251V16.6C78.4251 15.7667 79.0168 15.1083 79.8001 14.625C80.6001 14.1417 81.5335 13.9 82.6001 13.9ZM90.2447 10.125C90.2447 9.475 90.478 8.94167 90.9447 8.525C91.4113 8.09167 92.028 7.875 92.7947 7.875C93.5613 7.875 94.178 8.09167 94.6447 8.525C95.1113 8.94167 95.3447 9.475 95.3447 10.125C95.3447 10.7583 95.1113 11.2917 94.6447 11.725C94.178 12.1417 93.5613 12.35 92.7947 12.35C92.028 12.35 91.4113 12.1417 90.9447 11.725C90.478 11.2917 90.2447 10.7583 90.2447 10.125ZM94.9197 14.05V28H90.6447V14.05H94.9197ZM105.771 24.325V28H103.846C102.213 28 100.938 27.6 100.021 26.8C99.1212 25.9833 98.6712 24.6417 98.6712 22.775V17.65H96.7962V14.05H98.6712V10.625H102.946V14.05H105.746V17.65H102.946V22.85C102.946 23.4 103.055 23.7833 103.271 24C103.505 24.2167 103.888 24.325 104.421 24.325H105.771ZM121.424 20.65C121.424 21 121.382 21.3833 121.299 21.8H111.624C111.674 22.85 111.941 23.6083 112.424 24.075C112.907 24.525 113.524 24.75 114.274 24.75C114.907 24.75 115.432 24.5917 115.849 24.275C116.266 23.9583 116.541 23.55 116.674 23.05H121.199C121.016 24.0333 120.616 24.9167 119.999 25.7C119.382 26.4667 118.599 27.075 117.649 27.525C116.699 27.9583 115.641 28.175 114.474 28.175C113.107 28.175 111.891 27.8917 110.824 27.325C109.774 26.7417 108.949 25.9083 108.349 24.825C107.749 23.7417 107.449 22.475 107.449 21.025C107.449 19.5583 107.741 18.2917 108.324 17.225C108.924 16.1417 109.757 15.3167 110.824 14.75C111.891 14.1667 113.107 13.875 114.474 13.875C115.857 13.875 117.074 14.1583 118.124 14.725C119.174 15.2917 119.982 16.0917 120.549 17.125C121.132 18.1417 121.424 19.3167 121.424 20.65ZM117.099 20C117.116 19.0833 116.866 18.4 116.349 17.95C115.849 17.4833 115.224 17.25 114.474 17.25C113.691 17.25 113.041 17.4833 112.524 17.95C112.007 18.4167 111.716 19.1 111.649 20H117.099ZM131.727 10.15C133.977 10.15 135.836 10.7417 137.302 11.925C138.786 13.1083 139.744 14.7083 140.177 16.725H135.652C135.319 15.9083 134.802 15.2667 134.102 14.8C133.419 14.3333 132.602 14.1 131.652 14.1C130.402 14.1 129.394 14.5583 128.627 15.475C127.861 16.3917 127.477 17.6167 127.477 19.15C127.477 20.6833 127.861 21.9083 128.627 22.825C129.394 23.725 130.402 24.175 131.652 24.175C132.602 24.175 133.419 23.9417 134.102 23.475C134.802 23.0083 135.319 22.375 135.652 21.575H140.177C139.744 23.575 138.786 25.175 137.302 26.375C135.836 27.5583 133.977 28.15 131.727 28.15C130.011 28.15 128.502 27.775 127.202 27.025C125.902 26.2583 124.894 25.1917 124.177 23.825C123.477 22.4583 123.127 20.9 123.127 19.15C123.127 17.4 123.477 15.8417 124.177 14.475C124.894 13.1083 125.902 12.05 127.202 11.3C128.502 10.5333 130.011 10.15 131.727 10.15ZM149.098 13.875C150.482 13.875 151.715 14.1667 152.798 14.75C153.898 15.3167 154.757 16.1417 155.373 17.225C156.007 18.3083 156.323 19.575 156.323 21.025C156.323 22.475 156.007 23.7417 155.373 24.825C154.757 25.9083 153.898 26.7417 152.798 27.325C151.715 27.8917 150.482 28.175 149.098 28.175C147.715 28.175 146.473 27.8917 145.373 27.325C144.273 26.7417 143.407 25.9083 142.773 24.825C142.157 23.7417 141.848 22.475 141.848 21.025C141.848 19.575 142.157 18.3083 142.773 17.225C143.407 16.1417 144.273 15.3167 145.373 14.75C146.473 14.1667 147.715 13.875 149.098 13.875ZM149.098 17.575C148.282 17.575 147.59 17.875 147.023 18.475C146.473 19.0583 146.198 19.9083 146.198 21.025C146.198 22.1417 146.473 22.9917 147.023 23.575C147.59 24.1583 148.282 24.45 149.098 24.45C149.915 24.45 150.598 24.1583 151.148 23.575C151.698 22.9917 151.973 22.1417 151.973 21.025C151.973 19.9083 151.698 19.0583 151.148 18.475C150.598 17.875 149.915 17.575 149.098 17.575ZM178.293 13.875C179.36 13.875 180.277 14.1167 181.043 14.6C181.81 15.0833 182.377 15.7417 182.743 16.575V14.05H186.993V28H182.743V25.475C182.377 26.3083 181.81 26.9667 181.043 27.45C180.277 27.9333 179.36 28.175 178.293 28.175C177.143 28.175 176.11 27.8917 175.193 27.325C174.293 26.7417 173.577 25.9083 173.043 24.825C172.527 23.7417 172.268 22.475 172.268 21.025C172.268 19.5583 172.527 18.2917 173.043 17.225C173.577 16.1417 174.293 15.3167 175.193 14.75C176.11 14.1667 177.143 13.875 178.293 13.875ZM179.668 17.625C178.752 17.625 178.01 17.925 177.443 18.525C176.893 19.125 176.618 19.9583 176.618 21.025C176.618 22.0917 176.893 22.925 177.443 23.525C178.01 24.125 178.752 24.425 179.668 24.425C180.568 24.425 181.302 24.1167 181.868 23.5C182.452 22.8833 182.743 22.0583 182.743 21.025C182.743 19.975 182.452 19.15 181.868 18.55C181.302 17.9333 180.568 17.625 179.668 17.625ZM194.212 16.675C194.745 15.825 195.428 15.15 196.262 14.65C197.112 14.15 198.028 13.9 199.012 13.9V18.475H197.787C196.653 18.475 195.77 18.7167 195.137 19.2C194.52 19.6833 194.212 20.5 194.212 21.65V28H189.937V14.05H194.212V16.675Z" fill="white"/>
<path d="M162.815 9.5V28H158.54V9.5H162.815ZM170.042 9.5V28H165.767V9.5H170.042Z" fill="#40DDB6"/>
<path d="M14.3812 6H8.5021L25.2664 35L28.2059 29.9152L14.3812 6Z" fill="#40DDB6"/>
<path d="M5.88472 6H0.00561523L16.5562 34.6299L19.414 29.4051L5.88472 6Z" fill="#40DDB6"/>
<path d="M32.5363 22.6948L36.3105 16.1629H30.4331L29.5968 17.61L25.4387 10.4196H39.6256L42.1762 6H17.0056L29.6001 27.7863L32.538 22.6981L32.5363 22.6948Z" fill="#6B77E5"/>
</svg>
